<svg xmlns="http://www.w3.org/2000/svg" viewBox="0 0 393 852" width="393" height="852" font-family="Inter, system-ui, sans-serif">
  <defs><clipPath id="phone"><rect x="0" y="0" width="393" height="852" rx="56"/></clipPath></defs>
  <g clip-path="url(#phone)">
    <rect width="393" height="852" fill="#fffdf7"/>

    <!-- Status bar -->
    <text x="32" y="30" font-size="15" font-weight="600" fill="#14110c">9:41</text>
    <rect x="135" y="11" width="123" height="35" rx="20" fill="#14110c"/>

    <!-- Header -->
    <g transform="translate(24,72)">
      <text font-size="11" letter-spacing="1.6" fill="#e68a17">MENU</text>
      <text font-size="28" font-weight="700" fill="#14110c" y="36">7 items on the</text>
      <text font-size="28" font-weight="700" font-style="italic" fill="#0d4a2e" y="68">counter.</text>
    </g>

    <!-- Pending edits chip -->
    <g transform="translate(24,176)">
      <rect width="220" height="30" rx="15" fill="#e68a17" opacity="0.18"/>
      <circle cx="14" cy="15" r="3" fill="#e68a17"/>
      <text x="26" y="20" font-size="11.5" fill="#962f15">1 edit awaiting Magarpatta Go review</text>
    </g>

    <!-- Action buttons -->
    <g transform="translate(24,222)">
      <rect width="200" height="42" rx="14" fill="#fffdf7" stroke="#0d4a2e" stroke-width="1.4"/>
      <text x="20" y="27" font-size="14">📷</text>
      <text x="44" y="27" font-size="13" font-weight="600" fill="#0d4a2e">Import from photo / QR</text>
      <g transform="translate(212,0)">
        <rect width="132" height="42" rx="14" fill="#0d4a2e"/>
        <text x="66" y="27" text-anchor="middle" font-size="13" font-weight="600" fill="#f7efe1">+  Add item</text>
      </g>
    </g>

    <!-- Sweets & Snacks section -->
    <text x="24" y="298" font-size="13" font-weight="700" fill="#14110c">Sweets &amp; Snacks</text>

    <g transform="translate(24,308)">
      <rect width="345" height="438" rx="18" fill="#fffdf7" stroke="#14110c" stroke-opacity="0.08"/>

      <!-- Hot Jalebi -->
      <g transform="translate(20,18)">
        <rect x="0" y="0" width="14" height="14" rx="2" fill="none" stroke="#0d4a2e" stroke-width="1.4"/>
        <circle cx="7" cy="7" r="3" fill="#0d4a2e"/>
        <text x="22" y="12" font-size="13" font-weight="600" fill="#14110c">Hot Jalebi</text>
        <text x="22" y="28" font-size="11" fill="#3a3530">200g · +₹1 markup · in stock</text>
        <text x="290" y="14" font-size="13" font-weight="700" fill="#14110c">₹121</text>
      </g>
      <line x1="20" y1="64" x2="325" y2="64" stroke="#14110c" stroke-opacity="0.06"/>

      <!-- Samosa -->
      <g transform="translate(20,76)">
        <rect x="0" y="0" width="14" height="14" rx="2" fill="none" stroke="#0d4a2e" stroke-width="1.4"/>
        <circle cx="7" cy="7" r="3" fill="#0d4a2e"/>
        <text x="22" y="12" font-size="13" font-weight="600" fill="#14110c">Samosa</text>
        <text x="22" y="28" font-size="11" fill="#3a3530">2 pcs · +₹1 markup · in stock</text>
        <text x="290" y="14" font-size="13" font-weight="700" fill="#14110c">₹41</text>
      </g>
      <line x1="20" y1="124" x2="325" y2="124" stroke="#14110c" stroke-opacity="0.06"/>

      <!-- Kaju Katli -->
      <g transform="translate(20,136)">
        <rect x="0" y="0" width="14" height="14" rx="2" fill="none" stroke="#0d4a2e" stroke-width="1.4"/>
        <circle cx="7" cy="7" r="3" fill="#0d4a2e"/>
        <text x="22" y="12" font-size="13" font-weight="600" fill="#14110c">Kaju Katli</text>
        <text x="22" y="28" font-size="11" fill="#3a3530">200g · +₹1 markup · in stock</text>
        <text x="290" y="14" font-size="13" font-weight="700" fill="#14110c">₹451</text>
      </g>
      <line x1="20" y1="184" x2="325" y2="184" stroke="#14110c" stroke-opacity="0.06"/>

      <!-- Gulab Jamun -->
      <g transform="translate(20,196)">
        <rect x="0" y="0" width="14" height="14" rx="2" fill="none" stroke="#0d4a2e" stroke-width="1.4"/>
        <circle cx="7" cy="7" r="3" fill="#0d4a2e"/>
        <text x="22" y="12" font-size="13" font-weight="600" fill="#14110c">Gulab Jamun</text>
        <text x="22" y="28" font-size="11" fill="#3a3530">250g · +₹1 markup · in stock</text>
        <text x="290" y="14" font-size="13" font-weight="700" fill="#14110c">₹201</text>
      </g>
      <line x1="20" y1="244" x2="325" y2="244" stroke="#14110c" stroke-opacity="0.06"/>

      <!-- Sev Batata Puri -->
      <g transform="translate(20,256)">
        <rect x="0" y="0" width="14" height="14" rx="2" fill="none" stroke="#0d4a2e" stroke-width="1.4"/>
        <circle cx="7" cy="7" r="3" fill="#0d4a2e"/>
        <text x="22" y="12" font-size="13" font-weight="600" fill="#14110c">Sev Batata Puri</text>
        <text x="22" y="28" font-size="11" fill="#3a3530">1 plate · +₹1 markup · in stock</text>
        <text x="290" y="14" font-size="13" font-weight="700" fill="#14110c">₹101</text>
      </g>
      <line x1="20" y1="304" x2="325" y2="304" stroke="#14110c" stroke-opacity="0.06"/>

      <!-- Kachori (out of stock) -->
      <g transform="translate(20,316)">
        <rect x="0" y="0" width="14" height="14" rx="2" fill="none" stroke="#c64f2e" stroke-width="1.4"/>
        <path d="M0 0 L14 14 M14 0 L0 14" stroke="#c64f2e" stroke-width="1.4"/>
        <text x="22" y="12" font-size="13" font-weight="600" fill="#14110c">Kachori</text>
        <text x="22" y="28" font-size="11" fill="#c64f2e">2 pcs · OUT OF STOCK</text>
        <text x="290" y="14" font-size="13" font-weight="700" fill="#14110c">₹61</text>
      </g>
      <line x1="20" y1="364" x2="325" y2="364" stroke="#14110c" stroke-opacity="0.06"/>

      <!-- Malai Sandwich (awaiting review) -->
      <g transform="translate(20,376)">
        <rect x="0" y="0" width="14" height="14" rx="2" fill="none" stroke="#e68a17" stroke-width="1.4"/>
        <text x="22" y="12" font-size="13" font-weight="600" fill="#14110c" font-style="italic">Malai Sandwich · price edit awaiting review</text>
        <text x="22" y="28" font-size="11" fill="#e68a17">Edit submitted 18 min ago</text>
        <text x="290" y="14" font-size="13" font-weight="700" fill="#3a3530">₹81</text>
      </g>
    </g>

    <!-- Bottom tab bar -->
    <rect x="0" y="780" width="393" height="72" fill="#fffdf7"/>
    <line x1="0" y1="780" x2="393" y2="780" stroke="#14110c" stroke-opacity="0.06"/>
    <g font-size="10" font-weight="600">
      <g transform="translate(28,792)"><circle cx="14" cy="14" r="3" fill="#3a3530"/><text x="14" y="44" text-anchor="middle" fill="#3a3530">Today</text></g>
      <g transform="translate(112,792)"><circle cx="14" cy="14" r="3" fill="#3a3530"/><text x="14" y="44" text-anchor="middle" fill="#3a3530">Orders</text></g>
      <g transform="translate(196,792)"><circle cx="14" cy="14" r="3" fill="#0d4a2e"/><text x="14" y="44" text-anchor="middle" fill="#0d4a2e">Menu</text></g>
      <g transform="translate(280,792)"><circle cx="14" cy="14" r="3" fill="#3a3530"/><text x="14" y="44" text-anchor="middle" fill="#3a3530">Payouts</text></g>
      <g transform="translate(352,792)"><circle cx="14" cy="14" r="3" fill="#3a3530"/><text x="14" y="44" text-anchor="middle" fill="#3a3530">⋯</text></g>
    </g>
    <rect x="124" y="841" width="145" height="5" rx="2.5" fill="#14110c"/>
  </g>
</svg>
