<svg xmlns="http://www.w3.org/2000/svg" viewBox="0 0 393 852" width="393" height="852" font-family="Inter, system-ui, sans-serif">
  <defs><clipPath id="phone"><rect x="0" y="0" width="393" height="852" rx="56"/></clipPath></defs>
  <g clip-path="url(#phone)">
    <rect width="393" height="852" fill="#fffdf7"/>

    <!-- Status bar / island -->
    <text x="32" y="30" font-size="15" font-weight="600" fill="#14110c">9:41</text>
    <rect x="135" y="11" width="123" height="35" rx="20" fill="#14110c"/>

    <!-- Top header: location + cart -->
    <g transform="translate(24,72)">
      <text font-size="10.5" letter-spacing="1.6" fill="#3a3530" x="0" y="0">DELIVERING TO</text>
      <text font-size="16" font-weight="600" fill="#14110c" x="0" y="22">Daffodils B-1204, Magarpatta ▾</text>
    </g>
    <g transform="translate(335,80)">
      <circle cx="14" cy="14" r="20" fill="#0d4a2e" opacity="0.06"/>
      <path d="M5 8 L8 8 L11 19 L23 19 L25 11 L9 11" fill="none" stroke="#0d4a2e" stroke-width="1.6" stroke-linejoin="round"/>
      <circle cx="22" cy="6" r="6" fill="#e68a17"/>
      <text x="22" y="9" text-anchor="middle" font-size="9" font-weight="700" fill="#fffdf7">2</text>
    </g>

    <!-- Search -->
    <g transform="translate(24,124)">
      <rect width="345" height="48" rx="14" fill="#f7efe1"/>
      <circle cx="22" cy="24" r="6" fill="none" stroke="#3a3530" stroke-width="1.5"/>
      <line x1="27" y1="29" x2="32" y2="34" stroke="#3a3530" stroke-width="1.5" stroke-linecap="round"/>
      <text x="44" y="29" font-size="13.5" fill="#3a3530">Search jalebi, atta, paracetamol…</text>
    </g>

    <!-- Active campaign banner — DC's seasonal Alphonso -->
    <g transform="translate(24,194)">
      <rect width="345" height="84" rx="18" fill="#0d4a2e"/>
      <text x="20" y="30" font-size="10" letter-spacing="1.6" fill="#f4b564">SEASONAL · DESTINATION CENTRE</text>
      <text x="20" y="54" font-size="18" font-weight="700" fill="#f7efe1">Alphonso, hand-picked.</text>
      <text x="20" y="72" font-size="11.5" fill="#eee3ce">Ratnagiri crop, ripens in 2 days. 1 dozen ₹480.</text>
    </g>

    <!-- Categories -->
    <text x="24" y="312" font-size="11" letter-spacing="1.6" fill="#3a3530">SHOP BY NEED</text>
    <g transform="translate(24,326)">
      <g><rect width="76" height="86" rx="16" fill="#fffdf7" stroke="#14110c" stroke-opacity="0.08"/><circle cx="38" cy="34" r="14" fill="#e68a17" opacity="0.18"/><text x="38" y="40" text-anchor="middle" font-size="18">🍮</text><text x="38" y="68" text-anchor="middle" font-size="10.5" font-weight="600" fill="#14110c">Sweets</text><text x="38" y="80" text-anchor="middle" font-size="9" fill="#3a3530">&amp; Snacks</text></g>
      <g transform="translate(86,0)"><rect width="76" height="86" rx="16" fill="#fffdf7" stroke="#14110c" stroke-opacity="0.08"/><circle cx="38" cy="34" r="14" fill="#0d4a2e" opacity="0.12"/><text x="38" y="40" text-anchor="middle" font-size="18">🛒</text><text x="38" y="68" text-anchor="middle" font-size="10.5" font-weight="600" fill="#14110c">Pantry</text><text x="38" y="80" text-anchor="middle" font-size="9" fill="#3a3530">Staples</text></g>
      <g transform="translate(172,0)"><rect width="76" height="86" rx="16" fill="#fffdf7" stroke="#14110c" stroke-opacity="0.08"/><circle cx="38" cy="34" r="14" fill="#c64f2e" opacity="0.16"/><text x="38" y="40" text-anchor="middle" font-size="18">💊</text><text x="38" y="68" text-anchor="middle" font-size="10.5" font-weight="600" fill="#14110c">Medicines</text></g>
      <g transform="translate(258,0)"><rect width="76" height="86" rx="16" fill="#fffdf7" stroke="#14110c" stroke-opacity="0.08"/><circle cx="38" cy="34" r="14" fill="#c79321" opacity="0.18"/><text x="38" y="40" text-anchor="middle" font-size="18">🥖</text><text x="38" y="68" text-anchor="middle" font-size="10.5" font-weight="600" fill="#14110c">Bakery</text></g>
    </g>

    <!-- Vendors list -->
    <text x="24" y="464" font-size="11" letter-spacing="1.6" fill="#3a3530">OPEN NOW IN MAGARPATTA</text>

    <g transform="translate(24,484)">
      <rect width="345" height="92" rx="18" fill="#fffdf7" stroke="#14110c" stroke-opacity="0.08"/>
      <rect x="14" y="14" width="64" height="64" rx="14" fill="#e68a17" opacity="0.18"/>
      <text x="46" y="56" text-anchor="middle" font-size="22">🍮</text>
      <text x="92" y="36" font-size="15" font-weight="700" fill="#14110c">Kalika Sweets</text>
      <text x="92" y="54" font-size="11.5" fill="#3a3530">Sweets &amp; snacks · Magarpatta Market · 12 min</text>
      <g transform="translate(92,64)">
        <rect width="40" height="18" rx="9" fill="#0d4a2e" opacity="0.12"/>
        <text x="20" y="12" text-anchor="middle" font-size="10" font-weight="600" fill="#06311c">4.7 ★</text>
        <text x="50" y="13" font-size="10.5" fill="#3a3530">+₹1 hyper-local fee</text>
      </g>
    </g>

    <g transform="translate(24,592)">
      <rect width="345" height="92" rx="18" fill="#fffdf7" stroke="#14110c" stroke-opacity="0.08"/>
      <rect x="14" y="14" width="64" height="64" rx="14" fill="#0d4a2e" opacity="0.14"/>
      <text x="46" y="56" text-anchor="middle" font-size="22">🛒</text>
      <text x="92" y="36" font-size="15" font-weight="700" fill="#14110c">Destination Centre</text>
      <text x="92" y="54" font-size="11.5" fill="#3a3530">Grocery + supermarket · DC Hub · 15 min</text>
      <g transform="translate(92,64)">
        <rect width="40" height="18" rx="9" fill="#e68a17" opacity="0.18"/>
        <text x="20" y="12" text-anchor="middle" font-size="10" font-weight="600" fill="#962f15">4.5 ★</text>
        <text x="50" y="13" font-size="10.5" fill="#3a3530">MRP-listed · zero markup</text>
      </g>
    </g>

    <g transform="translate(24,700)">
      <rect width="345" height="64" rx="18" fill="#fffdf7" stroke="#14110c" stroke-opacity="0.08"/>
      <rect x="14" y="14" width="36" height="36" rx="10" fill="#c79321" opacity="0.18"/>
      <text x="32" y="38" text-anchor="middle" font-size="16">🥖</text>
      <text x="64" y="32" font-size="13" font-weight="700" fill="#14110c">The Baker&apos;s Basket</text>
      <text x="64" y="48" font-size="11" fill="#3a3530">Sourdough · croissants · Seasons Mall · 18 min</text>
    </g>

    <!-- Bottom tab bar -->
    <rect x="0" y="780" width="393" height="72" fill="#fffdf7"/>
    <line x1="0" y1="780" x2="393" y2="780" stroke="#14110c" stroke-opacity="0.06"/>
    <g font-size="10" font-weight="600" fill="#3a3530">
      <g transform="translate(38,792)"><circle cx="14" cy="14" r="3" fill="#0d4a2e"/><text x="14" y="44" text-anchor="middle" fill="#0d4a2e">Home</text></g>
      <g transform="translate(126,792)"><circle cx="14" cy="14" r="3" fill="#3a3530"/><text x="14" y="44" text-anchor="middle">Search</text></g>
      <g transform="translate(214,792)"><circle cx="14" cy="14" r="3" fill="#3a3530"/><text x="14" y="44" text-anchor="middle">Orders</text></g>
      <g transform="translate(302,792)"><circle cx="14" cy="14" r="3" fill="#3a3530"/><text x="14" y="44" text-anchor="middle">You</text></g>
    </g>
    <rect x="124" y="841" width="145" height="5" rx="2.5" fill="#14110c"/>
  </g>
</svg>
