<svg xmlns="http://www.w3.org/2000/svg" viewBox="0 0 393 852" width="393" height="852" font-family="Inter, system-ui, sans-serif">
  <defs><clipPath id="phone"><rect x="0" y="0" width="393" height="852" rx="56"/></clipPath></defs>
  <g clip-path="url(#phone)">
    <rect width="393" height="852" fill="#fffdf7"/>

    <!-- Status bar / island -->
    <text x="32" y="30" font-size="15" font-weight="600" fill="#14110c">9:41</text>
    <rect x="135" y="11" width="123" height="35" rx="20" fill="#14110c"/>

    <!-- Hero -->
    <rect x="0" y="64" width="393" height="200" fill="#0d4a2e"/>
    <text x="32" y="120" font-size="11" letter-spacing="1.6" fill="#f4b564">SWEETS &amp; SNACKS · MAGARPATTA MARKET · 12 MIN</text>
    <text x="32" y="160" font-size="32" font-weight="700" fill="#f7efe1" font-style="italic">Kalika Sweets.</text>
    <text x="32" y="190" font-size="13" fill="#eee3ce">Fresh-from-the-kadhai sweets and snacks since 1998.</text>
    <g transform="translate(32,210)">
      <rect width="46" height="22" rx="11" fill="#e68a17"/>
      <text x="23" y="15" text-anchor="middle" font-size="11" font-weight="700" fill="#14110c">4.7 ★</text>
      <text x="56" y="16" font-size="11.5" fill="#eee3ce">Institutional Magarpatta · +₹1 hyper-local fee</text>
    </g>
    <g transform="translate(335,84)">
      <circle cx="14" cy="14" r="18" fill="#fffdf7" opacity="0.12"/>
      <path d="M9 9 L19 19 M19 9 L9 19" stroke="#fffdf7" stroke-width="1.6" stroke-linecap="round"/>
    </g>

    <!-- Category pills -->
    <g transform="translate(24,294)">
      <rect width="56" height="30" rx="15" fill="#0d4a2e"/>
      <text x="28" y="20" text-anchor="middle" font-size="12" font-weight="600" fill="#f7efe1">All</text>
      <g transform="translate(64,0)"><rect width="92" height="30" rx="15" fill="#fffdf7" stroke="#14110c" stroke-opacity="0.12"/><text x="46" y="20" text-anchor="middle" font-size="12" fill="#14110c">Hot &amp; fresh</text></g>
      <g transform="translate(164,0)"><rect width="80" height="30" rx="15" fill="#fffdf7" stroke="#14110c" stroke-opacity="0.12"/><text x="40" y="20" text-anchor="middle" font-size="12" fill="#14110c">Mithai</text></g>
      <g transform="translate(252,0)"><rect width="84" height="30" rx="15" fill="#fffdf7" stroke="#14110c" stroke-opacity="0.12"/><text x="42" y="20" text-anchor="middle" font-size="12" fill="#14110c">Chaat</text></g>
    </g>

    <!-- Menu items — REAL Kalika seeded items -->
    <g transform="translate(24,344)">
      <rect width="345" height="100" rx="18" fill="#fffdf7" stroke="#14110c" stroke-opacity="0.08"/>
      <rect x="12" y="12" width="14" height="14" rx="2" fill="none" stroke="#0d4a2e" stroke-width="1.5"/>
      <circle cx="19" cy="19" r="3.5" fill="#0d4a2e"/>
      <text x="34" y="32" font-size="15" font-weight="700" fill="#14110c">Hot Jalebi</text>
      <text x="34" y="52" font-size="11.5" fill="#3a3530">200g · fresh out of the kadhai</text>
      <text x="34" y="78" font-size="16" font-weight="700" fill="#0d4a2e">₹121</text>
      <text x="74" y="78" font-size="10.5" fill="#3a3530">+₹1 hyper-local</text>
      <g transform="translate(258,28)">
        <rect width="72" height="44" rx="14" fill="#fffdf7" stroke="#0d4a2e" stroke-width="1.5"/>
        <text x="36" y="28" text-anchor="middle" font-size="13" font-weight="600" fill="#0d4a2e">ADD +</text>
      </g>
    </g>

    <g transform="translate(24,460)">
      <rect width="345" height="100" rx="18" fill="#fffdf7" stroke="#14110c" stroke-opacity="0.08"/>
      <rect x="12" y="12" width="14" height="14" rx="2" fill="none" stroke="#0d4a2e" stroke-width="1.5"/>
      <circle cx="19" cy="19" r="3.5" fill="#0d4a2e"/>
      <text x="34" y="32" font-size="15" font-weight="700" fill="#14110c">Samosa</text>
      <text x="34" y="52" font-size="11.5" fill="#3a3530">2 pcs · flaky pastry, potato-pea filling</text>
      <text x="34" y="78" font-size="16" font-weight="700" fill="#0d4a2e">₹41</text>
      <g transform="translate(258,28)">
        <rect width="72" height="44" rx="14" fill="#0d4a2e"/>
        <text x="22" y="28" font-size="14" fill="#f7efe1">−</text>
        <text x="36" y="28" text-anchor="middle" font-size="13" font-weight="700" fill="#f7efe1">2</text>
        <text x="50" y="28" font-size="14" fill="#f7efe1">+</text>
      </g>
    </g>

    <g transform="translate(24,576)">
      <rect width="345" height="100" rx="18" fill="#fffdf7" stroke="#14110c" stroke-opacity="0.08"/>
      <rect x="12" y="12" width="14" height="14" rx="2" fill="none" stroke="#0d4a2e" stroke-width="1.5"/>
      <circle cx="19" cy="19" r="3.5" fill="#0d4a2e"/>
      <text x="34" y="32" font-size="15" font-weight="700" fill="#14110c">Kaju Katli</text>
      <text x="34" y="52" font-size="11.5" fill="#3a3530">200g · silver-leaf cashew fudge, sliced fresh</text>
      <text x="34" y="78" font-size="16" font-weight="700" fill="#0d4a2e">₹451</text>
      <g transform="translate(258,28)">
        <rect width="72" height="44" rx="14" fill="#fffdf7" stroke="#0d4a2e" stroke-width="1.5"/>
        <text x="36" y="28" text-anchor="middle" font-size="13" font-weight="600" fill="#0d4a2e">ADD +</text>
      </g>
    </g>

    <g transform="translate(24,692)">
      <rect width="345" height="64" rx="18" fill="#fffdf7" stroke="#14110c" stroke-opacity="0.08"/>
      <rect x="12" y="12" width="14" height="14" rx="2" fill="none" stroke="#0d4a2e" stroke-width="1.5"/>
      <circle cx="19" cy="19" r="3.5" fill="#0d4a2e"/>
      <text x="34" y="28" font-size="13.5" font-weight="700" fill="#14110c">Sev Batata Puri  · 1 plate</text>
      <text x="34" y="46" font-size="11" fill="#3a3530">Assembled on your doorstep</text>
      <text x="305" y="36" text-anchor="end" font-size="14" font-weight="700" fill="#0d4a2e">₹101</text>
    </g>

    <!-- Sticky cart bar -->
    <g transform="translate(24,772)">
      <rect width="345" height="50" rx="20" fill="#0d4a2e"/>
      <text x="20" y="22" font-size="11.5" fill="#eee3ce">2 items · Kalika Sweets</text>
      <text x="20" y="38" font-size="14" font-weight="700" fill="#f7efe1">₹82 + ₹1 hyper-local</text>
      <text x="280" y="32" font-size="13" font-weight="600" fill="#f7efe1">View cart →</text>
    </g>

    <rect x="124" y="841" width="145" height="5" rx="2.5" fill="#14110c"/>
  </g>
</svg>
